<?xml version="1.0" standalone="no"?><!DOCTYPE svg PUBLIC "-//W3C//DTD SVG 1.1//EN" "http://www.w3.org/Graphics/SVG/1.1/DTD/svg11.dtd"><svg t="1639799797404" class="icon" viewBox="0 0 1024 1024" version="1.1" xmlns="http://www.w3.org/2000/svg" p-id="3348" xmlns:xlink="http://www.w3.org/1999/xlink" width="512" height="512"><defs><style type="text/css"></style></defs><path d="M833.28 289.536l-134.656-134.4a123.648 123.648 0 0 0-88.064-36.608h-345.6a76.8 76.8 0 0 0-76.8 76.8V819.2a76.8 76.8 0 0 0 76.8 76.8h520.192a76.8 76.8 0 0 0 76.8-76.8V358.4a98.816 98.816 0 0 0-28.672-68.864zM810.752 819.2a25.6 25.6 0 0 1-25.6 25.6H264.96a25.6 25.6 0 0 1-25.6-25.6V195.328a25.6 25.6 0 0 1 25.6-25.6h338.688a90.368 90.368 0 0 1 63.744 25.6l116.992 116.992a89.856 89.856 0 0 1 25.6 63.744z" p-id="3349" fill="#bfbfbf"></path><path d="M716.8 574.72H332.8a25.6 25.6 0 0 0 0 51.2h384a25.6 25.6 0 0 0 0-51.2zM716.8 702.72H332.8a25.6 25.6 0 0 0 0 51.2h384a25.6 25.6 0 0 0 0-51.2zM521.216 496.128H332.8a25.6 25.6 0 0 1 0-51.2h188.16a25.6 25.6 0 0 1 0 51.2z" p-id="3350" fill="#bfbfbf"></path></svg>