<?xml version="1.0" ?><!DOCTYPE svg  PUBLIC '-//W3C//DTD SVG 1.1//EN'  'http://www.w3.org/Graphics/SVG/1.1/DTD/svg11.dtd'><svg enable-background="new 0 0 128 128" id="Layer_1" version="1.1" viewBox="0 0 128 128" xml:space="preserve" xmlns="http://www.w3.org/2000/svg" xmlns:xlink="http://www.w3.org/1999/xlink"><circle cx="64" cy="64.01" fill="#B0D6EC" r="52"/><path d="M50.77,13.71l-8.09,13.93c0,0-7.7,5.45-8.73,5.6c-1.03,0.15-12.56,0.96-12.56,0.96s7.35-9.36,12.58-12.63  S50.77,13.71,50.77,13.71z" fill="#FFFFFF"/><path d="M86.24,111.03l-8.8-21.3l-16.79-4.68c0,0-1.25,4.12-3.41,3.5s-9.89-4.36-9.99-5.63  c-0.1-1.27,1.59-4.44,1.59-4.44l-12.51-0.92l-5.56-3.31c0,0-2.69,3.09-2.49,5.26c-2.68-0.01-6.71,2.98-7.54,4.21  c-0.83,1.24-1.56,6.64-1.56,6.64s11.34,18.79,28.95,23.18S80.42,114.26,86.24,111.03z" fill="#B2DDC9"/><path d="M88.72,18.25c0,0-0.9,7.54-0.8,7.84c0.1,0.31,3.7,7.64,3.7,7.64s-8.57,1.63-8.67,1.94s-8.38,8.44-8.38,8.44  l-7.44,4.94l-4.34,4.53l-7.94-1.57l-4.44,3.19l-9.7,2.76l-1.56,5.72l-4.02-1.25l-3.01,5.63l6.7,3.97l2.59-3.22l4.23-1.85l5.47,0.01  l4.51,7.34l-0.98,2.29l1.71-1.11l-5.24-8.52l5.99-0.59l4.22,5.15l1.43,6.5l3.42-5.05c0,0,3.62,7.23,4.28,6.82  c0.66-0.41,8.4-0.6,8.4-0.6l-1.67,9.18l16.54,18.31c0,0,22.97-15.68,22.29-41.69S100.03,25.5,88.72,18.25z" fill="#B2DDC9"/><polyline fill="#DBC5B9" points="70.45,70.11 73.27,72.11 77.6,71.13 82.45,73.24 84.52,69.22 79.47,64.67 83.19,63.04 76.17,64.04   71.85,62.38 70.45,69.19 "/><path d="M92.89,61.71l-3.93,4.32l3.5,5.48c0,0-0.22,3.92,0.4,4.02c0.62,0.1,5.98,0.01,5.98,0.01l1.66-4.43  l-4.32-3.62L92.89,61.71z" fill="#DBC5B9"/><path d="M107.88,91.93l-4.83-2.34l-6.09,3.18c0,0-4.95-7.44-4.94-7.75c0.01-0.31,4.04-2.47,4.04-2.47l6.6,1.67  l8.45,1.87" fill="#DBC5B9"/><path d="M82.95,35.68c0,0-15.55-12.62-15.86-12.73c-0.31-0.1-8.06,4.52-8.88,4.67s-6.42,8.6-6.62,8.39  s7.12-2.15,7.12-2.15s-1.98,8.35-2.08,8.87c-0.1,0.52,3.4,0.94,3.4,0.94l8.08-5.3c1.57-1.03,0.56-4.24,2.43-4.06l4.52,2.91l2.5,0.4" fill="#B2DDC9"/><circle cx="64" cy="64.01" fill="none" r="52" stroke="#4A7DA7" stroke-linecap="round" stroke-miterlimit="10" stroke-width="4"/><path d="  M50.77,13.71l-8.09,13.93c0,0-7.7,5.45-8.73,5.6c-1.03,0.15-12.56,0.96-12.56,0.96s7.35-9.36,12.58-12.63S50.77,13.71,50.77,13.71z" fill="none" stroke="#4A7DA7" stroke-linecap="round" stroke-linejoin="round" stroke-miterlimit="10" stroke-width="2"/><path d="  M86.24,111.03l-8.8-21.3l-16.79-4.68c0,0-1.25,4.12-3.41,3.5s-9.89-4.36-9.99-5.63c-0.1-1.27,1.59-4.44,1.59-4.44l-12.51-0.92  l-5.56-3.31c0,0-2.69,3.09-2.49,5.26c-2.68-0.01-6.71,2.98-7.54,4.21c-0.83,1.24-1.56,6.64-1.56,6.64s11.34,18.79,28.95,23.18  S80.42,114.26,86.24,111.03z" fill="none" stroke="#4A7DA7" stroke-linecap="round" stroke-linejoin="round" stroke-miterlimit="10" stroke-width="2"/><path d="  M88.72,18.25c0,0-0.9,7.54-0.8,7.84c0.1,0.31,3.7,7.64,3.7,7.64s-8.57,1.63-8.67,1.94s-8.38,8.44-8.38,8.44l-7.44,4.94l-4.34,4.53  l-7.94-1.57l-4.44,3.19l-9.7,2.76l-1.56,5.72l-4.02-1.25l-3.01,5.63l6.7,3.97l2.59-3.22l4.23-1.85l5.47,0.01l4.51,7.34l-0.98,2.29  l1.71-1.11l-5.24-8.52l5.99-0.59l4.22,5.15l1.43,6.5l3.42-5.05c0,0,3.62,7.23,4.28,6.82c0.66-0.41,8.4-0.6,8.4-0.6l-1.67,9.18  l16.54,18.31c0,0,22.97-15.68,22.29-41.69S100.03,25.5,88.72,18.25z" fill="none" stroke="#4A7DA7" stroke-linecap="round" stroke-linejoin="round" stroke-miterlimit="10" stroke-width="2"/><polyline fill="none" points="  70.45,70.11 73.27,72.11 77.6,71.13 82.45,73.24 84.52,69.22 79.47,64.67 83.19,63.04 76.17,64.04 71.85,62.38 70.45,69.19 " stroke="#4A7DA7" stroke-linecap="round" stroke-linejoin="round" stroke-miterlimit="10" stroke-width="2"/><path d="  M92.89,61.71l-3.93,4.32l3.5,5.48c0,0-0.22,3.92,0.4,4.02c0.62,0.1,5.98,0.01,5.98,0.01l1.66-4.43l-4.32-3.62L92.89,61.71z" fill="none" stroke="#4A7DA7" stroke-linecap="round" stroke-linejoin="round" stroke-miterlimit="10" stroke-width="2"/><path d="  M107.88,91.93l-4.83-2.34l-6.09,3.18c0,0-4.95-7.44-4.94-7.75c0.01-0.31,4.04-2.47,4.04-2.47l6.6,1.67l8.45,1.87" fill="none" stroke="#4A7DA7" stroke-linecap="round" stroke-linejoin="round" stroke-miterlimit="10" stroke-width="2"/><path d="  M82.95,35.68c0,0-15.55-12.62-15.86-12.73c-0.31-0.1-8.06,4.52-8.88,4.67s-6.42,8.6-6.62,8.39s7.12-2.15,7.12-2.15  s-1.98,8.35-2.08,8.87c-0.1,0.52,3.4,0.94,3.4,0.94l8.08-5.3c1.57-1.03,0.56-4.24,2.43-4.06l4.52,2.91l2.5,0.4" fill="none" stroke="#4A7DA7" stroke-linecap="round" stroke-linejoin="round" stroke-miterlimit="10" stroke-width="2"/></svg>