<?xml version="1.0" ?><!DOCTYPE svg  PUBLIC '-//W3C//DTD SVG 1.1//EN'  'http://www.w3.org/Graphics/SVG/1.1/DTD/svg11.dtd'><svg enable-background="new 0 0 136.602 135.696" height="135.696px" id="Layer_1" version="1.1" viewBox="0 0 136.602 135.696" width="136.602px" xml:space="preserve" xmlns="http://www.w3.org/2000/svg" xmlns:xlink="http://www.w3.org/1999/xlink"><g><g><g><g><circle cx="68.301" cy="67.849" fill="#E5E5E5" r="63.333"/></g></g></g><g><path d="M91.994,102.68c0,5.815-2.96,8.775-8.775,8.775H53.382c-5.815,0-8.775-2.96-8.775-8.775V30.721    c0-5.815,2.959-8.775,8.775-8.775h29.837c5.815,0,8.775,2.96,8.775,8.775V102.68z" fill="#202121"/><g><circle cx="68.429" cy="105.313" fill="#131313" r="3.51"/><path d="M69.548,105.83     c0,0.332-0.268,0.602-0.601,0.602h-1.036c-0.332,0-0.601-0.27-0.601-0.602v-1.035c0-0.333,0.269-0.603,0.601-0.603h1.036     c0.333,0,0.601,0.27,0.601,0.603V105.83z" fill="none" stroke="#202121" stroke-miterlimit="10" stroke-width="0.5"/></g><path d="M73.859,28.526c0,0.566-0.459,1.023-1.024,1.023h-9.068c-0.565,0-1.024-0.457-1.024-1.023l0,0    c0-0.565,0.459-1.022,1.024-1.022h9.068C73.399,27.504,73.859,27.961,73.859,28.526L73.859,28.526z" fill="#010101"/><linearGradient gradientUnits="userSpaceOnUse" id="SVGID_1_" x1="68.1909" x2="68.1909" y1="33.1348" y2="98.5117"><stop offset="0" style="stop-color:#6B809C"/><stop offset="0.703" style="stop-color:#5168B0"/><stop offset="1" style="stop-color:#5168B0"/></linearGradient><rect fill="url(#SVGID_1_)" height="65.377" width="42.78" x="46.801" y="33.135"/><path d="M56.673,95.236c0,0.961-0.779,1.739-1.74,1.739h-5.076c-0.961,0-1.741-0.778-1.741-1.739v-5.077    c0-0.961,0.779-1.74,1.741-1.74h5.076c0.961,0,1.74,0.779,1.74,1.74V95.236z" fill="#6BC177"/><path d="M67.204,95.236c0,0.961-0.779,1.739-1.74,1.739h-5.076c-0.961,0-1.741-0.778-1.741-1.739v-5.077    c0-0.961,0.779-1.74,1.741-1.74h5.076c0.96,0,1.74,0.779,1.74,1.74V95.236z" fill="#D4D4E3"/><path d="M77.734,95.236c0,0.961-0.779,1.739-1.74,1.739h-5.076c-0.961,0-1.741-0.778-1.741-1.739v-5.077    c0-0.961,0.779-1.74,1.741-1.74h5.076c0.96,0,1.74,0.779,1.74,1.74V95.236z" fill="#D4D4E3"/><path d="M88.265,95.236c0,0.961-0.779,1.739-1.74,1.739h-5.076c-0.961,0-1.741-0.778-1.741-1.739v-5.077    c0-0.961,0.779-1.74,1.741-1.74h5.076c0.96,0,1.74,0.779,1.74,1.74V95.236z" fill="#D4D4E3"/><path d="M56.673,46.094c0,0.96-0.779,1.739-1.74,1.739h-5.076c-0.961,0-1.741-0.779-1.741-1.739v-5.077    c0-0.961,0.779-1.74,1.741-1.74h5.076c0.961,0,1.74,0.779,1.74,1.74V46.094z" fill="#6BC177"/><path d="M67.204,46.094c0,0.96-0.779,1.739-1.74,1.739h-5.076c-0.961,0-1.741-0.779-1.741-1.739v-5.077    c0-0.961,0.779-1.74,1.741-1.74h5.076c0.96,0,1.74,0.779,1.74,1.74V46.094z" fill="#F6E655"/><path d="M77.734,46.094c0,0.96-0.779,1.739-1.74,1.739h-5.076c-0.961,0-1.741-0.779-1.741-1.739v-5.077    c0-0.961,0.779-1.74,1.741-1.74h5.076c0.96,0,1.74,0.779,1.74,1.74V46.094z" fill="#B6DCB0"/><path d="M88.265,46.094c0,0.96-0.779,1.739-1.74,1.739h-5.076c-0.961,0-1.741-0.779-1.741-1.739v-5.077    c0-0.961,0.779-1.74,1.741-1.74h5.076c0.96,0,1.74,0.779,1.74,1.74V46.094z" fill="#F7A4A5"/><path d="M56.673,56.624c0,0.961-0.779,1.74-1.74,1.74h-5.076c-0.961,0-1.741-0.779-1.741-1.74v-5.077    c0-0.961,0.779-1.739,1.741-1.739h5.076c0.961,0,1.74,0.778,1.74,1.739V56.624z" fill="#B6DCB0"/><path d="M67.204,56.624c0,0.961-0.779,1.74-1.74,1.74h-5.076c-0.961,0-1.741-0.779-1.741-1.74v-5.077    c0-0.961,0.779-1.739,1.741-1.739h5.076c0.96,0,1.74,0.778,1.74,1.739V56.624z" fill="#F7A4A5"/><path d="M77.734,56.624c0,0.961-0.779,1.74-1.74,1.74h-5.076c-0.961,0-1.741-0.779-1.741-1.74v-5.077    c0-0.961,0.779-1.739,1.741-1.739h5.076c0.96,0,1.74,0.778,1.74,1.739V56.624z" fill="#68B9CC"/><path d="M88.265,56.624c0,0.961-0.779,1.74-1.74,1.74h-5.076c-0.961,0-1.741-0.779-1.741-1.74v-5.077    c0-0.961,0.779-1.739,1.741-1.739h5.076c0.96,0,1.74,0.778,1.74,1.739V56.624z" fill="#F6E655"/><path d="M56.673,67.154c0,0.961-0.779,1.74-1.74,1.74h-5.076c-0.961,0-1.741-0.779-1.741-1.74v-5.077    c0-0.96,0.779-1.738,1.741-1.738h5.076c0.961,0,1.74,0.778,1.74,1.738V67.154z" fill="#68B9CC"/><path d="M67.204,67.154c0,0.961-0.779,1.74-1.74,1.74h-5.076c-0.961,0-1.741-0.779-1.741-1.74v-5.077    c0-0.96,0.779-1.738,1.741-1.738h5.076c0.96,0,1.74,0.778,1.74,1.738V67.154z" fill="#F6E655"/><path d="M77.734,67.154c0,0.961-0.779,1.74-1.74,1.74h-5.076c-0.961,0-1.741-0.779-1.741-1.74v-5.077    c0-0.96,0.779-1.738,1.741-1.738h5.076c0.96,0,1.74,0.778,1.74,1.738V67.154z" fill="#6BC177"/><rect fill="#202121" height="3.583" opacity="0.5" width="42.761" x="46.801" y="33.135"/><circle cx="83.164" cy="34.816" fill="#FFFFFF" r="0.914"/><circle cx="48.994" cy="34.816" fill="#FFFFFF" r="0.913"/><circle cx="87.332" cy="34.816" fill="#FFFFFF" r="0.913"/></g></g></svg>